<svg width="21" height="22" viewBox="0 0 21 22" fill="none" xmlns="http://www.w3.org/2000/svg">
<path d="M14.0624 11C14.0624 11.2984 14.181 11.5845 14.3919 11.7955C14.6029 12.0065 14.8891 12.125 15.1874 12.125C15.4858 12.125 15.772 12.0065 15.9829 11.7955C16.1939 11.5845 16.3124 11.2984 16.3124 11C16.3124 10.7016 16.1939 10.4155 15.9829 10.2045C15.772 9.99353 15.4858 9.875 15.1874 9.875C14.8891 9.875 14.6029 9.99353 14.3919 10.2045C14.181 10.4155 14.0624 10.7016 14.0624 11ZM4.68744 11C4.68744 11.2984 4.80597 11.5845 5.01694 11.7955C5.22792 12.0065 5.51407 12.125 5.81244 12.125C6.11081 12.125 6.39696 12.0065 6.60793 11.7955C6.81891 11.5845 6.93744 11.2984 6.93744 11C6.93744 10.7016 6.81891 10.4155 6.60793 10.2045C6.39696 9.99353 6.11081 9.875 5.81244 9.875C5.51407 9.875 5.22792 9.99353 5.01694 10.2045C4.80597 10.4155 4.68744 10.7016 4.68744 11Z" fill="#1890FF"/>
<path d="M20.1845 6.93125C19.6548 5.67266 18.8954 4.54297 17.9275 3.57266C16.9663 2.60796 15.8252 1.84114 14.5689 1.31563C13.2798 0.774219 11.9111 0.5 10.5001 0.5H10.4533C9.03295 0.507031 7.65716 0.788281 6.36341 1.34141C5.11785 1.87232 3.98747 2.64049 3.03529 3.60312C2.0767 4.57109 1.32435 5.69609 0.804039 6.95C0.264977 8.24844 -0.00689828 9.62891 0.000132967 11.0492C0.0080859 12.6769 0.393161 14.2806 1.12513 15.7344V19.2969C1.12513 19.5828 1.23872 19.857 1.44091 20.0592C1.6431 20.2614 1.91732 20.375 2.20326 20.375H5.7681C7.22192 21.107 8.82559 21.492 10.4533 21.5H10.5025C11.9064 21.5 13.2681 21.2281 14.5501 20.6961C15.8001 20.1768 16.9369 19.419 17.897 18.4648C18.865 17.5063 19.6267 16.3859 20.1587 15.1367C20.7119 13.843 20.9931 12.4672 21.0001 11.0469C21.0072 9.61953 20.7306 8.23438 20.1845 6.93125ZM16.6431 17.1969C15.0001 18.8234 12.8204 19.7188 10.5001 19.7188H10.4603C9.04701 19.7117 7.6431 19.3602 6.40326 18.6992L6.20638 18.5938H2.90638V15.2938L2.80091 15.0969C2.13998 13.857 1.78841 12.4531 1.78138 11.0398C1.77201 8.70312 2.66498 6.50937 4.30326 4.85703C5.9392 3.20469 8.12591 2.29062 10.4626 2.28125H10.5025C11.6744 2.28125 12.8111 2.50859 13.8822 2.95859C14.9275 3.39687 15.865 4.02734 16.6712 4.83359C17.4751 5.6375 18.1079 6.57734 18.5462 7.62266C19.0009 8.70547 19.2283 9.85391 19.2236 11.0398C19.2095 13.3742 18.2931 15.5609 16.6431 17.1969Z" fill="#1890FF"/>
<path d="M9.37494 11C9.37494 11.2984 9.49347 11.5845 9.70444 11.7955C9.91542 12.0065 10.2016 12.125 10.4999 12.125C10.7983 12.125 11.0845 12.0065 11.2954 11.7955C11.5064 11.5845 11.6249 11.2984 11.6249 11C11.6249 10.7016 11.5064 10.4155 11.2954 10.2045C11.0845 9.99353 10.7983 9.875 10.4999 9.875C10.2016 9.875 9.91542 9.99353 9.70444 10.2045C9.49347 10.4155 9.37494 10.7016 9.37494 11Z" fill="#1890FF"/>
</svg>
